<svg width="550" height="550" viewBox="0 0 550 550" fill="none" xmlns="http://www.w3.org/2000/svg">
<path d="M494.891 438.344H458.457V438.619H494.891V438.344Z" fill="#EBEBEB"/>
<path d="M364.342 441.329H354.78V441.604H364.342V441.329Z" fill="#EBEBEB"/>
<path d="M457.356 428.129H436.245V428.404H457.356V428.129Z" fill="#EBEBEB"/>
<path d="M105.217 429.977H57.7051V430.252H105.217V429.977Z" fill="#EBEBEB"/>
<path d="M121.978 429.977H115.012V430.252H121.978V429.977Z" fill="#EBEBEB"/>
<path d="M247.662 434.622H144.618V434.897H247.662V434.622Z" fill="#EBEBEB"/>
<path d="M262.241 371.58H49.832C46.3703 371.58 43.5532 368.763 43.5532 365.301V66.7261C43.5532 63.2644 46.3703 60.4473 49.832 60.4473H262.241C265.702 60.4473 268.519 63.2644 268.519 66.7261V365.301C268.519 368.763 265.702 371.58 262.241 371.58ZM49.832 60.7234C46.521 60.7234 43.8282 63.4162 43.8282 66.7272V365.302C43.8282 368.613 46.521 371.306 49.832 371.306H262.241C265.551 371.306 268.244 368.613 268.244 365.302V66.7261C268.244 63.4162 265.551 60.7223 262.241 60.7223L49.832 60.7234Z" fill="#EBEBEB"/>
<path d="M500.168 371.58H287.759C284.298 371.58 281.481 368.763 281.481 365.301V66.7261C281.481 63.2644 284.298 60.4473 287.759 60.4473H500.168C503.63 60.4473 506.446 63.2644 506.446 66.7261V365.301C506.446 368.763 503.629 371.58 500.168 371.58ZM287.759 60.7234C284.449 60.7234 281.756 63.4162 281.756 66.7272V365.302C281.756 368.613 284.449 371.306 287.759 371.306H500.168C503.479 371.306 506.171 368.613 506.171 365.302V66.7261C506.171 63.4162 503.479 60.7223 500.168 60.7223L287.759 60.7234Z" fill="#EBEBEB"/>
<path d="M550 420.638H0V420.913H550V420.638Z" fill="#EBEBEB"/>
<path d="M458.532 145.147H335.057V418.18H458.532V145.147Z" fill="#E0E0E0"/>
<path d="M458.532 142.753V420.574H481.281V142.753H458.532Z" fill="#E6E6E6"/>
<path d="M313.84 143.072V420.894H336.589V143.072H313.84Z" fill="#E6E6E6"/>
<path d="M309.536 142.753V420.574H461.26V142.753H309.536ZM455.803 147.543V197.36H314.994V147.543H455.803ZM314.994 306.573V256.756H455.803V306.573H314.994ZM455.803 311.362V361.179H314.994V311.362H455.803ZM314.994 251.965V202.149H455.803V251.965H314.994ZM314.994 415.785V365.968H455.803V415.785H314.994Z" fill="#F5F5F5"/>
<path d="M406.611 197.817H411.859V159.163H406.611V197.817Z" fill="#E6E6E6"/>
<path d="M411.859 197.817H417.107V159.163H411.859V197.817Z" fill="#E0E0E0"/>
<path d="M396.115 197.816H406.611V161.878H396.115V197.816Z" fill="#E6E6E6"/>
<path d="M384.083 197.817H390.866V159.163H384.083V197.817Z" fill="#F0F0F0"/>
<path d="M390.866 197.817H396.114V159.163H390.866V197.817Z" fill="#EBEBEB"/>
<path d="M344.278 197.817H351.061V159.163H344.278V197.817Z" fill="#E6E6E6"/>
<path d="M351.06 197.817H356.308V159.163H351.06V197.817Z" fill="#EBEBEB"/>
<path d="M366.804 197.817H373.587V159.163H366.804V197.817Z" fill="#E6E6E6"/>
<path d="M373.587 197.817H378.835V159.163H373.587V197.817Z" fill="#E0E0E0"/>
<path d="M333.782 197.816H344.278V160.078H333.782V197.816Z" fill="#EBEBEB"/>
<path d="M328.533 197.816H333.781V160.078H328.533V197.816Z" fill="#E0E0E0"/>
<path d="M359.808 197.816H366.805V160.078H359.808V197.816Z" fill="#E0E0E0"/>
<path d="M356.308 197.816H359.807V160.078H356.308V197.816Z" fill="#F0F0F0"/>
<path d="M373.587 197.816H384.083V161.878H373.587V197.816Z" fill="#F5F5F5"/>
<path d="M432.852 197.817H439.635V159.163H432.852V197.817Z" fill="#EBEBEB"/>
<path d="M439.634 197.817H444.882V159.163H439.634V197.817Z" fill="#E6E6E6"/>
<path d="M422.356 197.816H432.852V160.078H422.356V197.816Z" fill="#E0E0E0"/>
<path d="M417.107 197.816H422.355V160.078H417.107V197.816Z" fill="#EBEBEB"/>
<path d="M448.381 197.816H455.378V160.078H448.381V197.816Z" fill="#EBEBEB"/>
<path d="M444.882 197.816H448.381V160.078H444.882V197.816Z" fill="#FAFAFA"/>
<path d="M377.301 213.29H372.053V251.944H377.301V213.29Z" fill="#E6E6E6"/>
<path d="M372.053 213.29H366.805V251.944H372.053V213.29Z" fill="#E0E0E0"/>
<path d="M387.796 216.007H377.3V251.945H387.796V216.007Z" fill="#E6E6E6"/>
<path d="M399.828 213.29H393.045V251.944H399.828V213.29Z" fill="#F0F0F0"/>
<path d="M393.045 213.29H387.797V251.944H393.045V213.29Z" fill="#EBEBEB"/>
<path d="M439.634 213.29H432.851V251.944H439.634V213.29Z" fill="#E6E6E6"/>
<path d="M432.851 213.29H427.603V251.944H432.851V213.29Z" fill="#EBEBEB"/>
<path d="M417.107 213.29H410.324V251.944H417.107V213.29Z" fill="#E6E6E6"/>
<path d="M410.324 213.29H405.076V251.944H410.324V213.29Z" fill="#E0E0E0"/>
<path d="M450.13 214.205H439.634V251.944H450.13V214.205Z" fill="#EBEBEB"/>
<path d="M455.378 214.205H450.13V251.944H455.378V214.205Z" fill="#E0E0E0"/>
<path d="M424.104 214.205H417.107V251.944H424.104V214.205Z" fill="#E0E0E0"/>
<path d="M427.604 214.205H424.105V251.944H427.604V214.205Z" fill="#F0F0F0"/>
<path d="M410.324 216.007H399.828V251.945H410.324V216.007Z" fill="#F5F5F5"/>
<path d="M351.059 213.29H344.277V251.944H351.059V213.29Z" fill="#EBEBEB"/>
<path d="M344.277 213.29H339.029V251.944H344.277V213.29Z" fill="#E6E6E6"/>
<path d="M361.556 214.205H351.06V251.944H361.556V214.205Z" fill="#E0E0E0"/>
<path d="M366.805 214.205H361.557V251.944H366.805V214.205Z" fill="#EBEBEB"/>
<path d="M335.53 214.205H328.533V251.944H335.53V214.205Z" fill="#EBEBEB"/>
<path d="M339.03 214.205H335.531V251.944H339.03V214.205Z" fill="#FAFAFA"/>
<path d="M377.301 268.376H372.053V307.03H377.301V268.376Z" fill="#E6E6E6"/>
<path d="M372.053 268.376H366.805V307.03H372.053V268.376Z" fill="#E0E0E0"/>
<path d="M387.796 271.092H377.3V307.03H387.796V271.092Z" fill="#E6E6E6"/>
<path d="M399.828 268.376H393.045V307.03H399.828V268.376Z" fill="#F0F0F0"/>
<path d="M393.045 268.376H387.797V307.03H393.045V268.376Z" fill="#EBEBEB"/>
<path d="M439.634 268.376H432.851V307.03H439.634V268.376Z" fill="#E6E6E6"/>
<path d="M432.851 268.376H427.603V307.03H432.851V268.376Z" fill="#EBEBEB"/>
<path d="M417.107 268.376H410.324V307.03H417.107V268.376Z" fill="#E6E6E6"/>
<path d="M410.324 268.376H405.076V307.03H410.324V268.376Z" fill="#E0E0E0"/>
<path d="M450.13 269.291H439.634V307.03H450.13V269.291Z" fill="#EBEBEB"/>
<path d="M455.378 269.291H450.13V307.03H455.378V269.291Z" fill="#E0E0E0"/>
<path d="M424.104 269.291H417.107V307.03H424.104V269.291Z" fill="#E0E0E0"/>
<path d="M427.604 269.291H424.105V307.03H427.604V269.291Z" fill="#F0F0F0"/>
<path d="M410.324 271.092H399.828V307.03H410.324V271.092Z" fill="#F5F5F5"/>
<path d="M351.059 268.376H344.277V307.03H351.059V268.376Z" fill="#EBEBEB"/>
<path d="M344.277 268.376H339.029V307.03H344.277V268.376Z" fill="#E6E6E6"/>
<path d="M361.556 269.291H351.06V307.03H361.556V269.291Z" fill="#E0E0E0"/>
<path d="M366.805 269.291H361.557V307.03H366.805V269.291Z" fill="#EBEBEB"/>
<path d="M335.53 269.291H328.533V307.03H335.53V269.291Z" fill="#EBEBEB"/>
<path d="M339.03 269.291H335.531V307.03H339.03V269.291Z" fill="#FAFAFA"/>
<path d="M406.611 362.115H411.859V323.461H406.611V362.115Z" fill="#E6E6E6"/>
<path d="M411.859 362.115H417.107V323.461H411.859V362.115Z" fill="#E0E0E0"/>
<path d="M396.115 359.399H406.611V323.461H396.115V359.399Z" fill="#E6E6E6"/>
<path d="M384.083 362.115H390.866V323.461H384.083V362.115Z" fill="#F0F0F0"/>
<path d="M390.866 362.115H396.114V323.461H390.866V362.115Z" fill="#EBEBEB"/>
<path d="M344.278 362.115H351.061V323.461H344.278V362.115Z" fill="#E6E6E6"/>
<path d="M351.06 362.115H356.308V323.461H351.06V362.115Z" fill="#EBEBEB"/>
<path d="M366.804 362.115H373.587V323.461H366.804V362.115Z" fill="#E6E6E6"/>
<path d="M373.587 362.115H378.835V323.461H373.587V362.115Z" fill="#E0E0E0"/>
<path d="M333.782 361.2H344.278V323.461H333.782V361.2Z" fill="#EBEBEB"/>
<path d="M328.533 361.2H333.781V323.461H328.533V361.2Z" fill="#E0E0E0"/>
<path d="M359.808 361.2H366.805V323.461H359.808V361.2Z" fill="#E0E0E0"/>
<path d="M356.308 361.2H359.807V323.461H356.308V361.2Z" fill="#F0F0F0"/>
<path d="M373.587 359.399H384.083V323.461H373.587V359.399Z" fill="#F5F5F5"/>
<path d="M432.852 362.115H439.635V323.461H432.852V362.115Z" fill="#EBEBEB"/>
<path d="M439.634 362.115H444.882V323.461H439.634V362.115Z" fill="#E6E6E6"/>
<path d="M422.356 361.2H432.852V323.461H422.356V361.2Z" fill="#E0E0E0"/>
<path d="M417.107 361.2H422.355V323.461H417.107V361.2Z" fill="#EBEBEB"/>
<path d="M448.381 361.2H455.378V323.461H448.381V361.2Z" fill="#EBEBEB"/>
<path d="M444.882 361.2H448.381V323.461H444.882V361.2Z" fill="#FAFAFA"/>
<path d="M377.301 378.547H372.053V417.201H377.301V378.547Z" fill="#E6E6E6"/>
<path d="M372.053 378.547H366.805V417.201H372.053V378.547Z" fill="#E0E0E0"/>
<path d="M387.796 378.547H377.3V414.485H387.796V378.547Z" fill="#E6E6E6"/>
<path d="M399.828 378.547H393.045V417.201H399.828V378.547Z" fill="#F0F0F0"/>
<path d="M393.045 378.547H387.797V417.201H393.045V378.547Z" fill="#EBEBEB"/>
<path d="M439.634 378.547H432.851V417.201H439.634V378.547Z" fill="#E6E6E6"/>
<path d="M432.851 378.547H427.603V417.201H432.851V378.547Z" fill="#EBEBEB"/>
<path d="M417.107 378.547H410.324V417.201H417.107V378.547Z" fill="#E6E6E6"/>
<path d="M410.324 378.547H405.076V417.201H410.324V378.547Z" fill="#E0E0E0"/>
<path d="M450.13 378.547H439.634V416.286H450.13V378.547Z" fill="#EBEBEB"/>
<path d="M455.378 378.547H450.13V416.286H455.378V378.547Z" fill="#E0E0E0"/>
<path d="M424.104 378.547H417.107V416.286H424.104V378.547Z" fill="#E0E0E0"/>
<path d="M427.604 378.547H424.105V416.286H427.604V378.547Z" fill="#F0F0F0"/>
<path d="M410.324 378.547H399.828V414.485H410.324V378.547Z" fill="#F5F5F5"/>
<path d="M351.059 378.547H344.277V417.201H351.059V378.547Z" fill="#EBEBEB"/>
<path d="M344.277 378.547H339.029V417.201H344.277V378.547Z" fill="#E6E6E6"/>
<path d="M361.556 378.547H351.06V416.286H361.556V378.547Z" fill="#E0E0E0"/>
<path d="M366.805 378.547H361.557V416.286H366.805V378.547Z" fill="#EBEBEB"/>
<path d="M335.53 378.547H328.533V416.286H335.53V378.547Z" fill="#EBEBEB"/>
<path d="M339.03 378.547H335.531V416.286H339.03V378.547Z" fill="#FAFAFA"/>
<path d="M78.9407 168.704C78.9407 168.704 84.2163 191.635 82.1637 214.094C80.5544 231.702 76.3975 249.078 76.3975 249.078C76.3975 249.078 100.373 246.312 128.616 245.364C151.788 244.585 174.979 246.359 197.787 250.495L217.023 252.413C217.023 252.413 205.157 201.075 214.972 169.85L78.9407 168.704Z" fill="#FAFAFA"/>
<path d="M220.025 177.274L71.5649 176.789V164.4L219.46 162.046L220.025 177.274Z" fill="#EBEBEB"/>
<path d="M104.308 164.165L103.507 163.45L145.099 116.905C145.792 116.13 146.789 115.679 147.834 115.668C148.918 115.673 149.884 116.088 150.593 116.848L192.366 161.68L191.582 162.411L149.809 117.58C149.305 117.039 148.577 116.736 147.846 116.74C147.101 116.748 146.393 117.069 145.9 117.619L104.308 164.165Z" fill="#F5F5F5"/>
<path d="M149.251 117.503C149.251 118.22 148.664 118.801 147.94 118.801C147.216 118.801 146.629 118.22 146.629 117.503C146.629 116.786 147.215 116.205 147.94 116.205C148.665 116.205 149.251 116.786 149.251 117.503Z" fill="#E0E0E0"/>
<path d="M168.345 193.537C166.335 194.92 164.613 196.723 163.324 198.795C164.777 200.081 166.229 201.366 167.682 202.652C167.988 201.559 168.301 200.449 168.907 199.49C169.514 198.531 170.467 197.728 171.593 197.577C172.236 197.491 172.891 197.622 173.503 197.837C175.345 198.483 176.827 199.851 178.254 201.182C180.004 200.958 180.824 198.618 180.078 197.018C179.331 195.419 177.596 194.523 175.899 194.044C177.508 192.173 179.24 190.407 181.079 188.763C180.258 186.86 177.611 186.369 175.714 187.204C173.818 188.039 172.51 189.786 171.289 191.46C171.868 190.666 167.601 185.944 166.726 185.653C164.326 184.853 162.577 187.325 161.378 189.061C163.922 190.244 166.319 191.524 168.345 193.537Z" fill="#EBEBEB"/>
<path d="M100.385 235.358L99.8394 235.222L99.8812 235.106L100.385 235.358Z" fill="#E0E0E0"/>
<path d="M101.719 233.464L100.737 233.034C101.337 231.662 102.004 230.264 102.717 228.88C103.05 228.232 103.413 227.553 103.803 226.852L104.741 227.373C104.357 228.064 104.001 228.733 103.671 229.372C102.968 230.736 102.311 232.112 101.719 233.464Z" fill="#E0E0E0"/>
<path d="M107.077 223.483L106.172 222.906L106.184 222.888L107.077 223.483ZM108.343 221.612L107.468 220.994C108.385 219.694 109.338 218.467 110.296 217.344C110.796 216.759 111.314 216.185 111.849 215.628L112.623 216.369C112.104 216.911 111.6 217.471 111.113 218.041C110.174 219.138 109.243 220.34 108.343 221.612ZM160.315 213.877L159.952 213.872C159.118 213.857 158.248 213.829 157.345 213.787L157.394 212.717C158.288 212.757 159.148 212.784 159.972 212.8L160.316 212.804C160.819 212.804 161.349 212.783 161.896 212.741C162.627 212.684 163.373 212.588 164.112 212.46L164.297 213.516C163.525 213.651 162.745 213.75 161.978 213.811C161.402 213.856 160.844 213.877 160.315 213.877ZM155.025 213.654L155.078 212.586L155.177 212.593L155.025 213.654ZM115.907 213.349L115.23 212.52L115.312 212.456L115.907 213.349ZM150.479 213.247C149.732 213.163 148.973 213.069 148.201 212.965C146.683 212.76 145.156 212.517 143.665 212.245L143.858 211.189C145.333 211.46 146.842 211.699 148.344 211.903C149.107 212.005 149.859 212.099 150.6 212.181L150.479 213.247ZM168.749 212.249L168.356 211.254L168.454 211.218L168.749 212.249ZM117.745 212.015L117.153 211.121C118.512 210.222 119.904 209.493 121.292 208.953L121.297 208.965L121.291 208.951C122.032 208.663 122.784 208.422 123.527 208.236L123.787 209.277C123.088 209.452 122.379 209.679 121.68 209.951V209.952C120.364 210.464 119.04 211.158 117.745 212.015ZM141.393 211.8L141.584 210.746L141.669 210.762L141.393 211.8ZM170.91 211.168L170.35 210.252C171.741 209.402 172.742 208.395 173.327 207.262C173.646 206.642 173.843 205.975 173.911 205.282L174.979 205.387C174.897 206.216 174.662 207.011 174.281 207.752L174.059 207.637L174.282 207.753C173.604 209.063 172.47 210.212 170.91 211.168ZM136.937 210.765C136.202 210.574 135.463 210.374 134.719 210.161C134.074 209.976 133.425 209.783 132.775 209.582C131.973 209.334 131.163 209.141 130.364 209.009L130.539 207.951C131.385 208.091 132.244 208.294 133.092 208.557C133.735 208.756 134.375 208.946 135.013 209.129C135.748 209.339 136.478 209.536 137.204 209.724L136.937 210.765ZM128.121 208.793L128.17 207.724L128.263 207.73L128.121 208.793Z" fill="#E0E0E0"/>
<path d="M173.046 201.128L173.005 201.028L174.033 200.72L173.046 201.128Z" fill="#E0E0E0"/>
<path d="M370.116 142.561C385.657 142.561 398.256 129.962 398.256 114.42C398.256 98.8791 385.657 86.2803 370.116 86.2803C354.574 86.2803 341.976 98.8791 341.976 114.42C341.976 129.962 354.574 142.561 370.116 142.561Z" fill="#F0F0F0"/>
<path d="M370.195 143.187C354.33 143.187 341.422 130.279 341.422 114.414C341.422 98.5472 354.331 85.6387 370.195 85.6387V86.9048C355.027 86.9048 342.688 99.2446 342.688 114.412C342.688 129.58 355.028 141.92 370.195 141.92V143.187Z" fill="white"/>
<path d="M370.195 143.187V141.921C385.363 141.921 397.703 129.581 397.703 114.413C397.703 99.2456 385.362 86.9057 370.195 86.9057V85.6396C386.062 85.6396 398.969 98.5482 398.969 114.415C398.97 130.28 386.062 143.187 370.195 143.187Z" fill="white"/>
<path d="M384.899 114.42H383.633C383.633 105.094 378.901 92.6156 369.854 86.812L370.538 85.7461C379.967 91.795 384.899 104.75 384.899 114.42Z" fill="white"/>
<path d="M370.538 142.234L369.854 141.168C378.901 135.365 383.633 122.887 383.633 113.561H384.899C384.899 123.231 379.967 136.185 370.538 142.234Z" fill="white"/>
<path d="M356.76 114.414H355.494C355.494 104.744 360.426 91.7902 369.854 85.7402L370.539 86.8061C361.492 92.6097 356.76 105.088 356.76 114.414Z" fill="white"/>
<path d="M369.853 142.228C360.426 136.178 355.493 123.225 355.493 113.555H356.759C356.759 122.88 361.491 135.358 370.537 141.162L369.853 142.228Z" fill="white"/>
<path d="M370.829 86.2725H369.563V142.554H370.829V86.2725Z" fill="white"/>
<path d="M394.015 98.79H346.376V100.056H394.015V98.79Z" fill="white"/>
<path d="M398.324 114.26H342.068V115.526H398.324V114.26Z" fill="white"/>
<path d="M393.386 129.717H347.006V130.983H393.386V129.717Z" fill="white"/>
<path d="M123.575 394.471C123.575 394.471 117.755 366.968 128.354 352.069C138.954 337.17 118.775 351.897 116.454 365.843C116.454 365.843 112.975 340.907 123.257 323.363C133.539 305.819 114.302 320.225 112.667 338.301C112.667 338.301 109.518 316.055 114.241 303.553C118.966 291.052 110.747 299.09 107.588 306.927C104.428 314.763 108.574 334.168 108.574 334.168C108.574 334.168 100.33 298.286 92.5253 301.142C84.7208 303.998 104.193 327.508 106.895 339.737C106.895 339.737 97.6909 323.278 90.7092 326.705C83.7275 330.131 101.522 331.835 109.671 356.375L112.533 367.881C112.533 367.881 104.064 351.639 98.5269 356.762C92.9895 361.886 114.944 370.73 120.046 395.347L123.575 394.471Z" fill="#EBEBEB"/>
<path d="M122.435 396.055C122.435 396.055 121.211 361.378 104.078 346.692C86.944 332.006 115.5 343.632 122.435 359.645C122.435 359.645 119.172 328.742 101.63 310.791C84.0884 292.84 111.421 304.364 118.765 325.528C118.765 325.528 115.909 297.944 106.526 284.378C97.1432 270.812 109.382 277.992 115.501 286.437C121.62 294.882 122.437 319.359 122.437 319.359C122.437 319.359 121.62 273.926 131.82 275.02C142.019 276.115 125.7 310.075 126.108 325.528C126.108 325.528 132.228 303.074 141.611 305.097C150.994 307.121 130.188 314.463 127.741 346.284V360.918C127.741 360.918 133.044 338.94 141.204 343.428C149.362 347.916 125.701 365.05 126.926 396.055H122.435Z" fill="#F5F5F5"/>
<path d="M137.458 420.46H111.269C104.59 420.46 99.1758 415.046 99.1758 408.367V390.877H149.552V408.367C149.551 415.046 144.137 420.46 137.458 420.46Z" fill="#EBEBEB"/>
<path d="M275 469.717C392.79 469.717 488.278 464.141 488.278 457.262C488.278 450.383 392.79 444.807 275 444.807C157.21 444.807 61.7222 450.383 61.7222 457.262C61.7222 464.141 157.21 469.717 275 469.717Z" fill="#F5F5F5"/>
<path opacity="0.2" d="M261.286 291.095C260.998 282.817 266.982 275.564 269.078 291.228C270.401 301.182 267.016 318.532 262.758 330.753C262.353 317.951 261.798 303.695 261.286 291.095Z" fill="black"/>
<path d="M195.765 433.38L202.732 437.816L208.982 427.738L202.027 423.31L195.765 433.38Z" fill="#FF887B"/>
<path d="M203.793 437.656L196.141 430.602C195.878 430.345 195.461 430.336 195.188 430.582L188.985 436.107C188.368 436.719 188.364 437.716 188.978 438.334C188.991 438.347 189.004 438.361 189.017 438.374C191.717 440.789 193.138 441.81 196.496 444.92C198.562 446.825 201.046 449.522 203.895 452.169C206.744 454.816 209.364 451.993 208.406 450.629C204.068 444.514 204.972 442.395 204.499 439.165C204.439 438.595 204.191 438.064 203.793 437.656Z" fill="#263238"/>
<path d="M241.954 385.496C228.407 406.015 207.667 429.864 207.667 429.864L200.488 425.586C200.488 425.586 209.942 399.164 224.776 375.97L241.954 385.496Z" fill="#FF887B"/>
<path d="M223.77 375.405C226.799 370.67 231.059 366.632 234.503 362.417C235.794 332.902 233.269 284.237 244.956 268.226L276.281 270.991C276.281 270.991 261.181 339.313 254.471 365.688C253.099 371.081 248.87 378.19 243.505 386.318L223.77 375.405Z" fill="#263238"/>
<path d="M283.997 256.6L274.342 256.619L276.087 247.993C276.087 247.993 281.478 248.649 283.575 252.226L283.997 256.6Z" fill="#FF887B"/>
<path d="M269.469 254.002L269.438 250.617C269.436 249.266 270.51 248.159 271.86 248.119L276.087 247.993L274.342 256.619L271.799 256.466C270.494 256.385 269.477 255.308 269.469 254.002Z" fill="#FF887B"/>
<path d="M303.386 227.855C303.342 227.613 293.084 215.492 292.567 213.886L298.937 206.728C299.399 208.103 312.362 222.807 312.802 225.381L303.386 227.855Z" fill="#FF887B"/>
<path d="M292.974 196.134C299.703 201.257 305.976 211.32 305.976 211.32L294.758 221.683C294.758 221.683 282.579 207.534 280.859 201.776C279.06 195.797 288.214 192.185 292.974 196.134Z" fill="#265CC0"/>
<path opacity="0.1" d="M292.974 196.134C299.703 201.257 305.976 211.32 305.976 211.32L294.758 221.683C294.758 221.683 282.579 207.534 280.859 201.776C279.06 195.797 288.214 192.185 292.974 196.134Z" fill="black"/>
<path d="M271.8 455.603L280.99 455.704L280.885 445.763L271.696 445.662L271.8 455.603Z" fill="#FF887B"/>
<path d="M281.508 453.786L271.133 454.077C270.757 454.083 270.436 454.353 270.363 454.722L268.795 463.001C268.663 463.746 269.16 464.457 269.906 464.589C270.004 464.607 270.101 464.614 270.2 464.609C273.827 464.446 275.579 464.182 280.149 464.055C282.959 463.977 290.257 464.069 294.141 463.96C298.025 463.851 298.409 459.995 296.814 459.691C289.614 458.327 285.394 456.297 283.047 454.307C282.616 453.947 282.068 453.762 281.508 453.786Z" fill="#263238"/>
<path d="M284.345 390.837C282.409 418.869 280.885 445.763 280.885 445.763L271.696 445.662C271.696 445.662 265.212 407.621 267.681 389.323L284.345 390.837Z" fill="#FF887B"/>
<path d="M266.46 392.46C266.203 385.495 268.845 383.967 268.488 382.005C258.778 328.682 259.471 256.287 259.471 256.287L289.088 254.845C291.441 265.807 290.596 319.733 288.143 343.607C287.075 353.976 287.402 368.213 286.344 383.051C286.166 385.551 285.442 392.461 285.442 392.461L266.46 392.46Z" fill="#263238"/>
<path d="M295.16 215.118C296.173 228.573 290.047 229.278 290.199 246.466C290.213 248.085 289.683 253.4 291.256 264.501C292.692 274.643 291.498 331.671 291.468 333.061L230.579 333.607C229.992 280.326 249.249 248.429 249.237 244.996C249.203 234.683 248.107 224.152 243.625 203.972C242.593 199.318 245.529 194.709 250.183 193.679C250.44 193.621 250.7 193.576 250.962 193.543C253.391 193.226 256.085 192.935 258.819 192.797C264.946 192.334 271.099 192.31 277.23 192.723C281.539 193.103 285.026 193.923 288.33 194.48C291.57 195.018 295.16 215.118 295.16 215.118Z" fill="#265CC0"/>
<path d="M253.909 257.761L252.814 257.743C252.6 257.739 252.427 257.624 252.44 257.491L252.94 252.774C252.942 252.641 253.149 252.522 253.363 252.525L254.467 252.544C254.682 252.547 254.844 252.653 254.832 252.796L254.342 257.503C254.319 257.656 254.133 257.765 253.909 257.761Z" fill="#265CC0"/>
<path d="M286.628 257.643L285.524 257.625C285.309 257.621 285.136 257.516 285.15 257.373L285.649 252.656C285.651 252.523 285.858 252.414 286.073 252.407L287.177 252.426C287.391 252.429 287.564 252.535 287.541 252.678L287.052 257.385C287.03 257.528 286.844 257.637 286.628 257.643Z" fill="#265CC0"/>
<path d="M270.273 257.703L269.169 257.684C268.954 257.681 268.781 257.575 268.795 257.432L269.294 252.725C269.296 252.582 269.503 252.473 269.718 252.477L270.822 252.495C271.036 252.499 271.198 252.614 271.186 252.747L270.697 257.464C270.675 257.586 270.488 257.706 270.273 257.703Z" fill="#265CC0"/>
<path d="M309.645 223.505C304.302 222.616 286.678 229.394 283.265 231.047L283.66 235.131L305.221 233.599C307.023 233.472 308.796 232.946 310.292 231.934C313.407 229.825 313.247 227.235 312.952 225.868C312.609 224.269 311.258 223.773 309.645 223.505Z" fill="#FF887B"/>
<path d="M285.856 234.144C285.856 234.144 283.416 236.761 281.358 237.234C281.358 237.234 280.127 239.397 278.734 240.447C276.967 240.628 275.049 240.252 273.448 239.482C273.48 237.933 274.07 236.017 275.07 234.834C277.048 232.494 280.062 231.064 283.124 231.011C284.628 230.986 285.485 232.687 285.856 234.144Z" fill="#FF887B"/>
<path d="M297.845 238.709L295.35 261.598C295.254 262.47 294.462 263.175 293.58 263.172L258.074 263.035C257.192 263.032 256.553 262.322 256.649 261.449L259.143 238.56C259.239 237.688 260.031 236.983 260.913 236.986L296.419 237.123C297.301 237.126 297.94 237.837 297.845 238.709Z" fill="#263238"/>
<path d="M259.24 237.422L259.123 238.5C259.217 237.627 260.01 236.922 260.892 236.926L296.399 237.062C297.282 237.065 297.921 237.776 297.825 238.648L297.943 237.57C298.037 236.698 297.399 235.987 296.517 235.984L261.011 235.848C260.128 235.844 259.335 236.549 259.24 237.422Z" fill="#263238"/>
<path opacity="0.7" d="M259.24 237.422L259.123 238.5C259.217 237.627 260.01 236.922 260.892 236.926L296.399 237.062C297.282 237.065 297.921 237.776 297.825 238.648L297.943 237.57C298.037 236.698 297.399 235.987 296.517 235.984L261.011 235.848C260.128 235.844 259.335 236.549 259.24 237.422Z" fill="white"/>
<path d="M278.287 252.924C279.586 252.924 280.639 251.871 280.639 250.573C280.639 249.274 279.586 248.221 278.287 248.221C276.988 248.221 275.935 249.274 275.935 250.573C275.935 251.871 276.988 252.924 278.287 252.924Z" fill="white"/>
<path d="M239.533 205.354C237.622 209.903 235.907 214.436 234.31 219.096C233.517 221.409 232.735 223.719 232.062 226.17C231.3 228.669 230.694 231.213 230.248 233.787C230.118 234.587 230.034 235.395 229.999 236.204C229.982 236.826 230.021 237.448 230.115 238.064C230.16 238.31 230.221 238.55 230.3 238.788L230.413 239.234C230.481 239.425 230.56 239.613 230.65 239.796L230.798 240.085L230.833 240.224L230.86 240.332L230.996 240.53C231.765 241.601 232.437 242.706 233.285 243.715C234.891 245.815 236.675 247.771 238.618 249.563C240.608 251.364 242.799 252.93 245.147 254.23C246.343 254.889 247.591 255.45 248.877 255.906C249.536 256.128 250.202 256.339 250.879 256.515L251.938 256.73C252.335 256.797 252.62 256.621 253.183 256.677L253.913 251.899C253.746 251.802 253.572 251.716 253.394 251.642L252.727 251.305C252.277 251.072 251.83 250.806 251.389 250.527C250.49 249.95 249.624 249.322 248.798 248.645C247.154 247.251 245.638 245.714 244.269 244.048C243.601 243.164 242.908 242.348 242.293 241.386C241.678 240.425 241.054 239.591 240.484 238.681C239.915 237.772 239.389 236.744 238.819 235.793L238.771 235.605L238.745 235.506L238.768 235.595L238.819 235.793C238.85 235.912 238.944 236.078 238.972 236.145C238.996 236.22 239.016 236.295 239.03 236.372L239.104 236.66C239.162 236.887 239.145 236.818 239.119 236.719C239.094 236.62 239.235 236.014 239.337 235.544C239.807 233.62 240.517 231.36 241.282 229.181C242.046 227.002 242.846 224.761 243.686 222.552C245.355 218.127 247.092 213.642 248.797 209.239L239.533 205.354Z" fill="#FF887B"/>
<path d="M251.645 256.754L261.3 256.774L259.555 248.147C259.555 248.147 254.164 248.803 252.067 252.38L251.645 256.754Z" fill="#FF887B"/>
<path d="M266.174 254.156L266.205 250.77C266.207 249.419 265.133 248.313 263.783 248.272L259.556 248.146L261.301 256.773L263.844 256.621C265.147 256.539 266.165 255.463 266.174 254.156Z" fill="#FF887B"/>
<g opacity="0.2">
<path d="M248.43 230.909L254.833 214.376L246.424 215.875C246.424 215.875 247.18 221.313 247.165 221.196L248.43 230.909Z" fill="black"/>
</g>
<path d="M259.511 198.485C262.008 209.175 245.175 227.113 245.175 227.113L231.526 212.449C231.526 212.449 238.106 198.999 246.472 194.887C252.308 192.022 258.404 193.772 259.511 198.485Z" fill="#265CC0"/>
<path d="M260.523 172.085C261.701 177.996 262.906 188.837 258.779 192.797C265.119 195.42 273.369 209.716 278.404 214.377C283.033 206.212 277.19 192.722 277.19 192.722C270.589 191.178 270.734 186.282 271.866 181.678L260.523 172.085Z" fill="#FF887B"/>
<path opacity="0.2" d="M261.753 173.128C261.852 176.65 262.704 180.11 264.25 183.275C265.328 185.452 268.289 186.413 271.281 186.637C271.21 184.964 271.4 183.29 271.846 181.676L261.753 173.128Z" fill="black"/>
<path d="M251.066 164.713C253.972 174.193 254.926 178.259 260.998 182.045C270.054 187.733 281.063 182.142 281.093 172.006C281.105 162.883 276.372 148.924 266.101 147.327C258.742 146.133 251.808 151.13 250.615 158.489C250.276 160.571 250.431 162.702 251.066 164.713Z" fill="#FF887B"/>
<path d="M257.29 145.375C263.63 139.541 270.628 141.887 274.306 143.804C277.983 145.722 280.77 149.271 281.759 153.3C282.15 154.889 281.429 157.978 278.388 159.002C278.388 159.002 277.142 156.259 275.141 154.677C272.837 152.856 268.554 152.666 266.842 153.174C265.222 156.883 262.892 160.982 260.174 163.982C258.436 165.9 254.376 168.605 255.417 173.902C255.824 175.972 259.911 180.109 261.645 182.429L261.615 184.041C256.827 182.057 252.236 177.456 250.955 176.23C244.8 170.349 241.317 164.721 247.02 151.874C249.445 146.413 257.29 145.375 257.29 145.375Z" fill="#263238"/>
<path d="M277.171 159.42L277.234 159.36C277.42 159.179 277.425 158.882 277.245 158.695C276.167 157.649 274.656 157.179 273.175 157.429C272.922 157.488 272.766 157.741 272.825 157.994C272.826 157.999 272.827 158.002 272.828 158.005C272.889 158.257 273.143 158.414 273.395 158.353C274.582 158.151 275.794 158.532 276.65 159.38C276.801 159.497 277.006 159.514 277.171 159.42Z" fill="#263238"/>
<path d="M250.954 171.818L251.478 172.144L252.557 170.406C253.535 168.831 255.068 167.732 256.873 167.31L262.573 167.479C263.304 169.891 265.783 171.367 268.271 170.786C270.805 170.193 272.392 167.69 271.892 165.156C272.123 164.863 272.518 164.771 272.855 164.93C273.532 167.423 276.062 168.962 278.597 168.369C281.188 167.763 282.802 165.161 282.196 162.571C281.59 159.979 278.989 158.364 276.398 158.972C273.983 159.536 272.442 161.834 272.729 164.241C272.367 164.186 271.996 164.272 271.696 164.483C270.887 162.198 268.485 160.823 266.071 161.387C263.583 161.969 262.016 164.391 262.431 166.877L256.731 166.708C254.765 167.168 253.096 168.366 252.032 170.08L250.954 171.818ZM273.4 164.63C272.872 162.371 274.28 160.102 276.54 159.574C278.799 159.046 281.067 160.454 281.595 162.714C282.124 164.973 280.716 167.241 278.457 167.769C276.198 168.297 273.929 166.889 273.4 164.63ZM263.073 167.046C262.545 164.786 263.952 162.518 266.213 161.99C268.472 161.462 270.74 162.87 271.268 165.129C271.796 167.389 270.39 169.657 268.13 170.186C265.871 170.713 263.603 169.305 263.073 167.046Z" fill="#265CC0"/>
<path d="M248.916 170.06C249.467 171.908 250.739 173.456 252.445 174.354C254.696 175.503 256.337 173.628 256.143 171.231C255.965 169.08 254.576 165.879 252.108 165.701C250.314 165.626 248.798 167.02 248.723 168.814C248.705 169.238 248.77 169.661 248.916 170.06Z" fill="#FF887B"/>
<path d="M265.269 166.18C265.461 166.961 266.024 167.502 266.538 167.378C267.051 167.254 267.309 166.522 267.128 165.741C266.947 164.961 266.374 164.419 265.86 164.543C265.346 164.667 265.089 165.399 265.269 166.18Z" fill="#263238"/>
<path d="M274.122 164.08C274.302 164.871 274.867 165.402 275.38 165.278C275.894 165.154 276.161 164.432 275.971 163.641C275.78 162.85 275.226 162.33 274.713 162.443C274.199 162.558 273.931 163.3 274.122 164.08Z" fill="#263238"/>
<path d="M274.496 162.542L276.252 161.549C276.252 161.549 275.629 163.257 274.496 162.542Z" fill="#263238"/>
<path d="M272.659 165.137C273.777 166.759 275.111 168.22 276.625 169.48C275.956 170.245 274.982 170.679 273.966 170.662L272.659 165.137Z" fill="#BA4D3C"/>
<path d="M272.022 174.125C272.097 174.064 272.13 173.966 272.108 173.871C272.07 173.747 271.941 173.676 271.815 173.712L271.814 173.713C269.867 174.287 267.763 173.902 266.145 172.676C266.047 172.589 265.898 172.599 265.811 172.695C265.724 172.793 265.734 172.942 265.831 173.028C267.563 174.382 269.847 174.802 271.948 174.155L272.022 174.125Z" fill="#263238"/>
<path d="M263.102 162.811C263.165 162.757 263.218 162.692 263.259 162.619C263.707 161.502 264.665 160.669 265.833 160.383C266.091 160.342 266.267 160.1 266.226 159.842C266.185 159.585 265.943 159.409 265.686 159.449C264.2 159.79 262.971 160.829 262.386 162.237C262.288 162.483 262.409 162.762 262.657 162.86C262.804 162.918 262.971 162.899 263.102 162.811Z" fill="#263238"/>
<path d="M265.643 164.641L267.399 163.648C267.399 163.648 266.787 165.356 265.643 164.641Z" fill="#263238"/>
<path d="M328.66 419.308C325.032 415.413 320.405 412.455 315.347 410.799C315.181 410.219 314.535 409.838 314.37 409.26C320.427 410.732 325.838 413.308 330.257 417.703C329.832 418.44 329.085 418.569 328.66 419.308Z" fill="#263238"/>
<g opacity="0.3">
<path d="M328.66 419.308C325.032 415.413 320.405 412.455 315.347 410.799C315.181 410.219 314.535 409.838 314.37 409.26C320.427 410.732 325.838 413.308 330.257 417.703C329.832 418.44 329.085 418.569 328.66 419.308Z" fill="white"/>
</g>
<path d="M344.687 406.922C343.531 410.322 340.702 413.108 337.284 414.211C336.075 414.601 334.767 414.809 333.741 415.556C333.731 415.564 333.72 415.572 333.71 415.579C332.331 416.613 332.795 418.804 334.425 419.364C336.408 420.045 338.351 420.859 339.922 422.225C341.895 423.941 343.099 427.123 342.191 429.576C340.632 430.853 337.724 430.284 336.321 428.836C335.832 426.22 333.064 424.794 330.629 423.716C327.754 422.443 324.441 420.536 325.172 416.917C325.498 415.301 327.147 413.626 328.724 413.15C340.126 409.718 341.3 404.216 341.3 404.216C342.607 404.216 342.876 403.742 344.182 403.742C344.927 404.581 345.048 405.859 344.687 406.922Z" fill="#263238"/>
<path opacity="0.3" d="M344.687 406.922C343.531 410.322 340.702 413.108 337.284 414.211C336.075 414.601 334.767 414.809 333.741 415.556C333.731 415.564 333.72 415.572 333.71 415.579C332.331 416.613 332.795 418.804 334.425 419.364C336.408 420.045 338.351 420.859 339.922 422.225C341.895 423.941 343.099 427.123 342.191 429.576C340.632 430.853 337.724 430.284 336.321 428.836C335.832 426.22 333.064 424.794 330.629 423.716C327.754 422.443 324.441 420.536 325.172 416.917C325.498 415.301 327.147 413.626 328.724 413.15C340.126 409.718 341.3 404.216 341.3 404.216C342.607 404.216 342.876 403.742 344.182 403.742C344.927 404.581 345.048 405.859 344.687 406.922Z" fill="white"/>
<path d="M314.94 437.516L330.022 430.042C335.998 427.079 342.56 426.941 348.604 429.647L366.179 437.516C349.966 445.208 331.154 445.208 314.94 437.516Z" fill="#263238"/>
<path d="M339.544 425.765C342.207 422.159 345.969 419.374 350.196 417.882C350.518 417.768 351.011 416.96 350.723 416.777C346.986 417.631 343.39 419.029 340.168 421.105C338.975 421.874 337.703 423.075 337.214 424.408C337.978 425.424 338.272 425.783 339.544 425.765Z" fill="#263238"/>
<path opacity="0.3" d="M339.544 425.765C342.207 422.159 345.969 419.374 350.196 417.882C350.518 417.768 351.011 416.96 350.723 416.777C346.986 417.631 343.39 419.029 340.168 421.105C338.975 421.874 337.703 423.075 337.214 424.408C337.978 425.424 338.272 425.783 339.544 425.765Z" fill="white"/>
<path d="M348.24 463.663H330.282C325.876 463.663 321.783 461.388 319.457 457.647L308.121 439.422C307.464 438.367 308.223 437.001 309.466 437.001H369.056C370.299 437.001 371.058 438.367 370.401 439.422L359.065 457.647C356.739 461.388 352.646 463.663 348.24 463.663Z" fill="#265CC0"/>
<path d="M316.658 408.939C315.674 406.713 314.993 406.489 316.645 404.704C318.26 404.643 319.818 403.732 320.663 402.355C321.508 400.978 321.658 398.969 320.979 397.502C318.248 398.871 316.307 401.796 315.479 404.737C315.979 403.313 315.698 401.641 314.76 400.46C313.821 399.278 312.898 399.014 311.398 399.181L311.41 399.441C311.46 400.506 312.077 401.412 312.941 402.035C313.97 402.775 314.54 404.302 314.281 405.616C313.919 407.455 314.732 406.398 313.358 407.673C314.073 406.002 313.226 404.045 311.457 403.627C309.898 405.088 309.423 407.802 310.573 409.603C309.557 408.17 307.716 407.266 306.529 407.765C305.79 408.076 303.369 410.284 304.028 412.522C305.489 411.102 306.005 411.172 308.002 411.569C310 411.966 311.764 413.393 312.571 415.263C315.437 414.739 317.836 411.602 316.658 408.939Z" fill="#265CC0"/>
<path d="M343.557 377.198C341.724 375.544 339.022 374.568 336.258 374.561C335.63 376.112 336.576 378.357 338.543 378.306C337.698 376.461 333.226 376.526 331.763 378.154C331.133 378.856 330.772 380.347 331.526 380.917C332.28 381.489 333.511 381.586 334.424 381.147C331.571 380.131 326.983 383.143 326.99 385.734C325.889 385.039 323.05 385.093 321.805 385.673C320.56 386.252 319.771 387.458 319.884 388.612C322.973 389.127 325.286 389.254 328.436 388.841C326.045 390.821 324.447 394.586 326.3 396.816C327.537 395.954 329.287 395.663 330.525 394.802C329.344 396.958 326.786 399.275 324.295 400.461C325.427 401.145 326.869 401.392 327.847 400.508C324.337 400.897 320.804 404.088 321.452 406.926C321.896 405.639 323.231 404.871 324.628 405.493C323.352 406.673 324.347 408.615 326.219 408.763C328.476 408.939 330.273 408.878 331.736 407.402C331.427 408.398 330.134 409.362 329.826 410.359C333.399 410.264 337.391 408.717 339.025 406.055C338.645 406.905 338.519 408.008 339.561 408.24C340.165 408.893 339.401 407.408 340.004 408.06C341.69 407.54 343.223 406.664 344.414 405.541C345.671 407.873 348.362 409.828 351.495 409.869C354.024 408.339 354.846 404.793 352.847 402.911C354.386 403.943 356.936 404.276 358.822 403.631C357.423 403.376 355.826 401.871 355.321 400.772C357.052 401.331 359.175 400.912 360.911 400.265C361.925 397.908 358.755 395.087 355.751 395.243C356.997 393.241 359.973 392.306 362.634 392.584C363.33 391.589 362.65 390.663 361.605 389.956C360.561 389.249 358.871 389.281 357.807 390.028C360.221 387.698 359.973 384.456 358.842 381.624C356.205 382.658 354.157 384.901 354.681 387.22C355.765 384.729 355.857 382.29 355.356 379.717C352.607 378.473 347.41 381.035 347.143 383.653C348.292 381.449 346.129 378.577 343.804 377.246C343.673 377.022 343.761 377.381 343.557 377.198Z" fill="#265CC0"/>
<path d="M354.258 412.162C353.946 411.939 353.632 411.718 353.32 411.496C354.12 410.405 354.92 409.314 355.72 408.224C356.815 408.547 358.55 409.568 358.64 410.705C358.729 411.843 358.055 413.002 357.025 413.49C358.115 412.497 361.23 413.246 361.674 414.652C362.119 416.058 360.384 417.644 359.087 416.944C361.249 416.896 363.75 419.908 363.517 422.057C362.31 423.58 359.613 423.474 358.339 422.007C359.4 422.706 360.395 424.63 359.729 425.711C359.062 426.793 357.49 427.191 356.389 426.556C354.7 425.584 353.798 423.579 355.074 422.106C353.134 421.998 351.76 422.745 350.732 424.394C349.956 423.055 350.912 421.001 352.266 420.252C350.326 419.238 348.495 418.251 346.366 418.758C346.839 417.325 347.933 415.528 349.409 415.213C350.886 414.898 352.51 415.421 353.527 416.537C350.916 416.237 349.105 413.998 348.765 411.393C349.871 410.296 352.953 411.308 354.258 412.162Z" fill="#265CC0"/>
<path d="M308.526 401.262C308.682 402.669 309.603 403.968 310.879 404.581C312.155 405.195 313.744 405.103 314.94 404.346C314.382 403.709 313.827 403.13 313.271 402.55C312.056 401.285 310.256 400.809 308.559 401.254L308.526 401.262Z" fill="#265CC0"/>
<path d="M315.392 406.435C315.882 408.06 317.593 409.221 319.284 409.077C319.448 407.431 318.14 405.636 316.495 405.444C315.989 405.383 315.245 405.947 315.392 406.435Z" fill="#265CC0"/>
<path d="M317.015 411.017C316.106 411.617 315.656 412.834 315.954 413.882C316.252 414.929 317.277 415.726 318.366 415.758C319.53 414.17 318.67 412.081 317.015 411.017Z" fill="#265CC0"/>
<path d="M309.218 416.315C308.678 414.742 309.553 412.823 311.094 412.199C312.052 412.893 312.247 413.95 311.785 415.039C311.324 416.13 310.383 416.521 309.218 416.315Z" fill="#265CC0"/>
<path d="M362.126 420.39C362.852 419.953 363.578 419.517 364.305 419.079C364.912 419.985 366.522 420.301 367.551 419.939C367.54 419.959 367.879 420.157 367.869 420.178C368.06 419.398 367.585 418.559 366.89 418.156C366.196 417.752 365.338 417.723 364.549 417.875C364.613 416.881 364.3 415.663 363.494 415.078C363.024 415.452 362.884 416.263 362.889 416.863C362.895 417.464 363.189 418.056 363.666 418.421C362.736 418.655 362.043 419.392 361.319 420.023C361.641 420.15 361.803 420.261 362.126 420.39Z" fill="#265CC0"/>
<path d="M221.627 325.431L187.037 325.902C184.749 325.991 182.624 324.202 182.294 321.904C182.261 321.676 182.247 321.447 182.253 321.221L182.311 284.857C182.392 282.189 184.427 280.18 187.111 280.117L201.937 279.761C209.329 269.288 221.503 267.587 221.503 267.587C221.503 267.587 214.659 274.53 213.416 279.689L221.689 279.644C223.977 279.555 226.101 281.345 226.431 283.643C226.464 283.87 226.478 284.099 226.473 284.326L226.422 320.684C226.342 323.351 224.31 325.362 221.627 325.431Z" fill="white" stroke="#265CC0" stroke-miterlimit="10"/>
<path d="M219.617 316.155C219.617 317.812 218.273 319.156 216.616 319.156H192.108C190.45 319.156 189.107 317.812 189.107 316.155V289.415C189.107 287.757 190.45 286.414 192.108 286.414H216.616C218.273 286.414 219.617 287.757 219.617 289.415V316.155Z" fill="#265CC0"/>
<path opacity="0.8" d="M210.414 297.46C210.414 301.396 208.297 304.586 204.363 304.586C200.428 304.586 198.312 301.396 198.312 297.46C198.312 293.524 200.428 290.334 204.363 290.334C208.297 290.334 210.414 293.524 210.414 297.46Z" fill="white"/>
<path opacity="0.8" d="M215.569 311.606C214.559 308.207 211.931 305.946 208.99 305.946H199.735C196.795 305.946 194.167 308.207 193.155 311.606L191.584 316.887C191.718 317.052 191.904 317.154 192.108 317.154H216.616C216.82 317.154 217.005 317.052 217.14 316.887L215.569 311.606Z" fill="white"/>
<path d="M220.564 138.167L141.53 137.697C139.242 137.607 137.118 139.397 136.788 141.695C136.755 141.924 136.74 142.152 136.746 142.378L136.804 178.742C136.884 181.409 138.92 183.419 141.604 183.482L200.874 183.838C208.266 194.311 220.439 196.012 220.439 196.012C220.439 196.012 213.595 189.069 212.352 183.91L220.625 183.955C222.913 184.044 225.037 182.254 225.367 179.956C225.4 179.729 225.415 179.5 225.409 179.273L225.358 142.915C225.279 140.249 223.248 138.237 220.564 138.167Z" fill="white" stroke="#265CC0" stroke-miterlimit="10"/>
<path d="M172.794 150.739H217.607" stroke="#265CC0" stroke-miterlimit="10"/>
<path d="M148.889 150.739H164.471" stroke="#265CC0" stroke-miterlimit="10"/>
<path d="M198.552 160.254H218.086" stroke="#265CC0" stroke-miterlimit="10"/>
<path d="M144.467 160.254H191.586" stroke="#265CC0" stroke-miterlimit="10"/>
<path d="M168.709 169.769H218.352" stroke="#265CC0" stroke-miterlimit="10"/>
<path d="M144.734 169.769H160.957" stroke="#265CC0" stroke-miterlimit="10"/>
<path d="M302.661 128.964L337.251 128.493C339.539 128.404 341.663 130.194 341.993 132.492C342.026 132.721 342.041 132.948 342.035 133.175L341.977 167.504C341.897 170.171 339.86 172.181 337.176 172.244L322.351 172.6C314.959 183.073 302.785 184.774 302.785 184.774C302.785 184.774 309.629 177.831 310.872 172.672L302.599 172.717C300.311 172.806 298.188 171.016 297.857 168.718C297.824 168.491 297.81 168.262 297.815 168.035L297.866 133.712C297.945 131.045 299.977 129.034 302.661 128.964Z" fill="white" stroke="#265CC0" stroke-miterlimit="10"/>
<path d="M319.847 134.401C313.994 134.401 309.249 139.145 309.249 144.998C309.249 150.851 319.847 165.758 319.847 165.758C319.847 165.758 330.446 150.851 330.446 144.998C330.447 139.145 325.7 134.401 319.847 134.401ZM319.942 150.091C317.172 150.091 314.926 147.843 314.926 145.075C314.926 142.303 317.173 140.056 319.942 140.056C322.714 140.056 324.96 142.304 324.96 145.075C324.96 147.843 322.714 150.091 319.942 150.091Z" fill="#265CC0"/>
<path d="M324.694 181.619L403.728 181.149C406.016 181.06 408.14 182.849 408.47 185.147C408.503 185.376 408.517 185.604 408.512 185.83L408.453 222.194C408.372 224.862 406.337 226.871 403.653 226.934L344.384 227.29C336.992 237.764 324.818 239.464 324.818 239.464C324.818 239.464 331.662 232.521 332.905 227.362L324.632 227.407C322.344 227.496 320.22 225.706 319.89 223.408C319.857 223.181 319.843 222.952 319.848 222.725L319.899 186.366C319.979 183.701 322.011 181.689 324.694 181.619Z" fill="white" stroke="#265CC0" stroke-miterlimit="10"/>
<path d="M367.625 189.98C367.106 189.98 366.682 190.403 366.682 190.923V219.801C366.682 220.321 367.105 220.744 367.625 220.744H402.299C402.818 220.744 403.242 220.322 403.242 219.801V190.923C403.242 190.404 402.819 189.98 402.299 189.98H367.625Z" fill="#265CC0"/>
<path opacity="0.8" d="M383.157 211.896L378.943 219.234L369.186 219.309C368.697 219.309 368.306 218.906 368.306 218.418V217.782L377.29 203.928L383.157 211.896Z" fill="white"/>
<path d="M401.791 215.575L392.515 199.448L381.093 219.305H400.903C401.393 219.305 401.791 218.907 401.791 218.418V215.575Z" fill="#265CC0"/>
<path opacity="0.8" d="M401.792 215.574V218.417C401.792 218.905 401.388 219.308 400.901 219.308H381.095L383.546 215.043L392.51 199.449L401.792 215.574Z" fill="white"/>
<path opacity="0.8" d="M387.428 197.202C387.428 198.564 386.324 199.668 384.962 199.668C383.6 199.668 382.497 198.564 382.497 197.202C382.497 195.841 383.601 194.737 384.962 194.737C386.324 194.737 387.428 195.841 387.428 197.202Z" fill="white"/>
<path d="M325.611 195.848H361.665" stroke="#265CC0" stroke-miterlimit="10"/>
<path d="M325.611 205.361H361.665" stroke="#265CC0" stroke-miterlimit="10"/>
<path d="M326.121 214.875H361.665" stroke="#265CC0" stroke-miterlimit="10"/>
<path d="M210.463 229.483L210.485 249.616C210.496 249.847 210.485 250.078 210.452 250.298C210.111 252.597 207.988 254.39 205.7 254.302L197.428 254.258L185.955 254.181L126.687 253.829C124.003 253.763 121.968 251.75 121.88 249.088L121.825 212.722C121.825 212.491 121.836 212.271 121.869 212.04C122.199 209.741 124.322 207.948 126.61 208.036L205.645 208.509C208.329 208.575 210.353 210.588 210.441 213.261L210.452 218.23C220.495 225.644 222.145 237.447 222.145 237.447C222.145 237.447 215.567 230.968 210.463 229.483Z" fill="white" stroke="#265CC0" stroke-miterlimit="10"/>
<path d="M167.146 222.806H203.2" stroke="#265CC0" stroke-miterlimit="10"/>
<path d="M167.146 232.32H203.2" stroke="#265CC0" stroke-miterlimit="10"/>
<path d="M167.216 241.835H203.2" stroke="#265CC0" stroke-miterlimit="10"/>
<path d="M160.616 245.708C160.616 247.554 159.12 249.05 157.274 249.05H129.979C128.134 249.05 126.638 247.554 126.638 245.708V215.927C126.638 214.081 128.134 212.585 129.979 212.585H157.274C159.12 212.585 160.616 214.081 160.616 215.927V245.708Z" fill="#265CC0"/>
<g opacity="0.8">
<path d="M127.524 235.949L128.792 237.485L137.786 230.633L147.942 234.48L156.778 227.006L157.371 228.22L159.76 223.623L155.089 223.553L155.683 224.767L147.79 232.638L137.614 228.876L127.524 235.949Z" fill="white"/>
</g>
<path d="M301.771 320L336.362 320.471C338.65 320.56 340.774 318.77 341.104 316.472C341.137 316.244 341.151 316.016 341.145 315.789L341.087 279.425C341.006 276.758 338.971 274.748 336.287 274.685L321.461 274.329C314.069 263.856 301.895 262.155 301.895 262.155C301.895 262.155 308.739 269.098 309.982 274.257L301.709 274.212C299.421 274.123 297.297 275.913 296.967 278.211C296.934 278.439 296.92 278.667 296.925 278.894L296.976 315.253C297.056 317.919 299.087 319.931 301.771 320Z" fill="white" stroke="#265CC0" stroke-miterlimit="10"/>
<path d="M329.747 309.275H308.325C306.63 309.275 305.256 307.901 305.256 306.206V291.673C305.256 289.978 306.63 288.604 308.325 288.604H329.747C331.442 288.604 332.816 289.978 332.816 291.673V306.206C332.815 307.901 331.441 309.275 329.747 309.275Z" fill="#265CC0"/>
<g opacity="0.8">
<path d="M316.145 292.976L324.602 298.939L316.145 304.903V292.976Z" fill="white"/>
</g>
<path d="M274.422 136.433C274.422 137.522 273.37 138.404 272.073 138.404C270.776 138.404 269.725 137.522 269.725 136.433C269.725 135.344 270.776 134.462 272.073 134.462C273.37 134.461 274.422 135.344 274.422 136.433Z" fill="white" stroke="#265CC0" stroke-miterlimit="10"/>
<path d="M273.565 135.055C275.189 135.055 276.505 133.95 276.505 132.587C276.505 131.223 275.189 130.118 273.565 130.118C271.941 130.118 270.625 131.223 270.625 132.587C270.625 133.95 271.941 135.055 273.565 135.055Z" fill="white" stroke="#265CC0" stroke-miterlimit="10"/>
<path d="M272.979 131.649C275.825 131.649 278.133 129.712 278.133 127.322C278.133 124.933 275.825 122.996 272.979 122.996C270.133 122.996 267.826 124.933 267.826 127.322C267.826 129.712 270.133 131.649 272.979 131.649Z" fill="white" stroke="#265CC0" stroke-miterlimit="10"/>
<path d="M262.121 129.629C275.118 129.629 285.655 120.784 285.655 109.872C285.655 98.9608 275.118 90.1152 262.121 90.1152C249.124 90.1152 238.588 98.9608 238.588 109.872C238.588 120.784 249.124 129.629 262.121 129.629Z" fill="white" stroke="#265CC0" stroke-miterlimit="10"/>
<path d="M259.502 97.9759C259.502 96.3853 260.929 95.1357 262.859 95.1357C264.79 95.1357 266.216 96.3094 266.216 97.8626C266.216 99.5291 264.831 100.816 262.859 100.816C260.929 100.816 259.502 99.5665 259.502 97.9759ZM260.216 104.148H265.462V124.368H260.216V104.148Z" fill="#263238"/>
</svg>
