<svg width="46" height="42" viewBox="0 0 46 42" fill="none" xmlns="http://www.w3.org/2000/svg">
<g clip-path="url(#clip0_2_12349)">
<path d="M21.103 17.4029V17.6968L21.2738 17.9907L21.502 18.2222L21.8436 18.4569V18.2222L21.502 17.9316L21.6728 17.6376L21.7862 17.5786V16.4063L21.4446 16.5819L21.2738 16.8168L21.103 17.1106V17.4029ZM10.3916 27.4805L10.4506 27.3655L10.165 26.8353L9.93663 26.7187L10.3916 27.4805ZM29.3063 15.4705V15.6461L29.7613 15.5279L29.8763 15.2358L29.5921 14.8252L29.7613 14.5314L30.1619 14.8827L30.2179 14.8252L30.1619 14.7661L30.0471 14.5314L30.2179 14.4722L30.0471 14.2391L29.6479 14.4148L29.5346 14.6495L29.4771 14.8827L29.6479 15.1765L29.5346 15.3522L29.3063 15.4705ZM30.8451 7.8507L30.7319 7.61747L30.3903 7.44184L30.1045 7.61747L30.4461 7.8507L30.8451 8.08711L30.8451 7.8507ZM11.9305 8.84724L13.8109 10.7239C11.6304 13.0126 10.2863 16.4358 10.2782 19.6293H7.65874C7.72097 15.5902 9.23911 11.8058 11.9305 8.84724ZM10.8498 23.6731L10.6774 23.6139L10.5066 23.4383L9.82338 23.3792L10.0516 23.6731L9.36839 23.5549L9.53759 23.3792L9.36839 23.2052L8.85598 23.4383L8.68356 23.7897L8.73939 24.5516L9.31097 25.957L9.59502 26.3673L9.76582 26.4264L9.31097 25.6056L9.25501 25.1967L9.31097 25.0785L9.25501 24.8453H9.53759L9.93663 25.489L9.99258 25.548V25.0785L10.165 25.1967L10.2224 25.4299L10.6199 25.548L10.7907 25.4299H10.8498V25.7812L11.019 26.016L11.2489 26.0751L11.7038 26.8961L12.0455 26.9534L12.1029 26.6021L12.5003 27.2457L12.9553 27.8318L13.4119 28.4179L13.9243 29.0042L12.0455 30.879C9.23911 27.6873 7.79442 24.4217 7.65873 20.1579H10.2782L10.3358 21.0938L10.4506 21.9738L10.6199 22.7946L10.8498 23.6731ZM13.4119 20.158L13.4677 20.9181L13.1261 21.0364L13.0703 21.3285L12.4445 22.2085V23.4383L11.7613 23.6731H11.3622L11.1339 22.7946L10.9615 21.9738L10.8498 21.0938L10.7907 20.158H13.4119ZM13.9817 27.7169L14.6091 28.0666L14.7224 28.1849L14.2659 28.5952L13.6976 27.9501L13.9817 27.7169ZM16.3746 13.4197L18.2535 15.2931L17.6852 15.9975L17.2286 16.7576H17.1153L16.8312 16.8168H16.7737L16.4896 17.0515H16.8312L17.1728 16.9349L17.1153 17.0515L16.8312 17.2273H16.7162L16.2612 17.5786L15.918 17.5212L15.3482 18.6327L15.4632 18.8083L15.1215 19.1613L15.064 19.6293H13.9243C13.9482 17.3389 14.8342 15.0715 16.3746 13.4197ZM18.2535 21.212L18.4259 21.1545L18.7675 21.4451L18.5967 21.5634L18.9957 21.7965L18.9383 21.5634L19.1665 21.212L19.3933 21.4451L19.6215 21.7391L19.2225 21.8555L19.3933 22.2085L19.6789 22.0312L19.6215 21.9147L19.8498 21.7965L19.9647 21.212L20.1914 21.7391L20.5346 22.1494L18.7085 24.0836C17.7027 22.8685 17.342 22.0607 17.0578 20.5093L17.4569 20.9181H17.7985L18.2535 21.212ZM15.634 19.2204L15.6914 18.6917L15.9756 18.5161L16.5454 18.6327L16.6028 18.6917L16.5454 19.6293H15.918L15.634 19.2204ZM14.7783 21.0938L14.4942 21.4451H14.0392L13.9817 20.8015L13.9243 20.1579H14.7224L14.5516 20.8015L14.7783 21.0938ZM16.4896 26.3098C15.329 25.0424 16.1527 22.4909 14.7224 21.4451L14.8932 21.0364L14.7224 20.744L14.8932 20.3927H15.2348L15.3482 20.158H15.9756L16.0904 20.3337L15.9756 20.9772L15.8622 21.0938L16.0904 21.6225L15.9756 21.6799L15.8622 21.5634L15.8048 21.6225L15.918 21.9147L16.0904 22.2661H16.148L16.2038 21.9738L16.148 21.8555V21.6225L16.0904 21.1545L16.2038 20.3927L16.0904 20.158H16.5454C16.6779 22.0477 17.1935 22.9917 18.3109 24.4349L16.4896 26.3098ZM32.2116 28.9466C34.4513 26.6481 35.6995 23.3923 35.8001 20.158H38.4213C38.3176 24.0918 36.7803 28.0552 34.0346 30.8199L32.2116 28.9466ZM31.4725 28.1849L31.6992 27.9501L31.5283 26.8961L31.3575 26.8353L31.4725 26.6612L31.0143 26.5447L30.9585 26.8961L30.9011 27.3655L30.7893 27.4805L29.9911 26.6612C31.53 25.0736 32.6746 22.4121 32.6698 20.1579H35.2877C35.2144 23.2643 33.9852 26.3164 31.8716 28.5362L31.4725 28.1849ZM29.193 30.7033L29.4197 30.178L29.3638 29.9432L29.7054 29.5903V29.4145L29.4197 29.1798L29.6479 28.6528L30.0471 28.1849L29.6479 27.7169H29.3638L29.193 27.4231L29.6479 27.0125L31.4725 28.9466L30.9585 29.4145L30.3903 29.8842L29.8187 30.2946L29.193 30.7033ZM28.8514 25.489L28.5656 25.1967L28.7939 24.9619L29.0206 24.4349L28.9072 24.3166L29.078 23.9063V23.6139L28.9647 23.2626L28.738 23.146L28.679 23.3792L28.5082 23.3217L28.7939 22.8521L29.078 22.3252L29.3063 22.2085L29.4197 22.0312L29.4771 22.1494L29.6479 21.9147L29.5346 21.7391H29.6479L29.8763 21.7965L30.2753 21.8555L30.5019 21.6799L31.1293 21.5042L31.0143 21.3285V21.0364L31.3575 21.212L31.4725 21.0938L31.4135 20.8607L30.9585 21.0364L30.5019 20.9181L30.1619 20.158H32.1542C32.0935 22.4302 31.1373 24.645 29.6479 26.3098L29.3638 26.016L29.4771 25.6056L29.2489 24.7846L28.8514 25.489ZM27.8808 15.3522L29.7613 13.4197L30.3327 14.18L30.9011 14.9992L30.6743 15.0601V15.5278L31.3575 15.9401L31.5859 16.5819L31.8125 17.1682L31.6992 17.3439L31.4135 17.5212L31.3575 17.9316L31.1867 17.9907L31.0735 18.1647L30.9011 18.1073H30.6743L30.7893 17.9316L30.9011 17.3439L31.0735 17.2863L30.5595 16.7576L30.2179 16.8759L30.1045 17.2863L29.8763 17.5212L29.6479 17.2863L29.5346 17.1106L29.7054 16.9925L29.7613 17.1682L29.8763 17.1106L29.8187 16.8759H29.6479V16.9349L29.5346 16.9925L28.9647 16.2898L28.7939 16.1141L28.8514 16.0549L29.0206 15.9975L28.8514 15.9401L28.6215 15.9975L28.738 16.1141H28.4522L28.224 15.7052L27.8808 15.3522ZM28.1666 25.7237L27.5966 25.548L27.4258 25.6056L27.1418 25.3724L26.8576 25.2558L27.2566 24.9044L27.7116 25.2558L28.0548 25.4299L28.2814 25.6056L28.1666 25.7237ZM27.1992 16.8168L27.4258 16.7576V16.7002L27.1992 16.5246L27.2566 15.9975L27.5408 15.7052L27.9974 16.3488L27.9398 16.7002L27.6542 16.4655L27.4818 16.5246L27.5408 16.7576H27.6542L27.5408 16.9925L27.4818 16.8759L27.1992 16.8168ZM30.3327 18.6327C30.9346 18.3224 31.8029 18.1548 31.8125 17.2863L31.9275 17.6968L31.6992 18.4569L31.6417 18.7509L32.0408 18.2222L32.0983 18.9266L32.1542 19.6293H29.8763L29.8187 19.4537L30.1045 19.2204L30.1619 19.1023L30.2753 18.9856H30.5595L30.6169 18.8083L30.3327 18.6327ZM30.8451 12.3641H31.4725L31.6417 12.5381L31.5283 12.8321L32.4399 13.359H32.6107L33.693 14.6495L34.148 14.5314C34.8376 16.1321 35.3484 17.8626 35.2877 19.6293H32.6698C32.004 16.2027 33.752 16.7198 31.5283 13.5364L31.7551 13.653L31.8125 13.5364L31.2443 13.126L31.1867 13.3016C32.0265 14.2949 32.4399 15.5246 32.5532 16.8168H32.3266L31.9833 16.1141L32.0983 15.9401L31.8716 15.6461V15.2931L31.7551 15.1175H31.5283L31.3001 14.707L31.4725 14.7661L31.4135 14.5888L31.5859 14.4722L31.5283 14.3557L31.2443 14.4722L31.3575 14.0634L31.1867 14.0043L31.0735 14.2982L30.6169 13.653L30.1045 13.0668L30.8451 12.3641ZM34.148 8.9081C36.8713 11.6892 38.3862 15.7019 38.4213 19.6293H35.8001C35.8161 17.861 35.275 15.431 34.4336 13.8877L34.4896 13.8303L34.662 13.9468L34.7194 13.8303L34.2054 12.9503L33.693 12.1884L33.0082 11.6023L32.3266 10.783L34.148 8.9081ZM23.0392 36.1527C42.8255 35.4435 44.9407 6.70133 24.6339 3.5162V3.63449L24.5781 4.04327C28.3166 4.5752 31.0304 5.86072 33.8064 8.49757L32.0408 10.3135L32.0983 10.0196L31.8716 9.90297H31.5859L31.6417 9.66823L31.4135 8.9081L31.0143 8.43846L29.6479 7.67666L29.4771 7.8507L29.2489 7.91139L29.5921 8.43846L29.8187 9.02455L29.9337 9.66823L29.9911 10.2543V10.6073L30.6743 11.4857L30.3327 11.5432L30.5595 11.8945L29.9337 12.4807L29.7054 12.0127L29.4771 12.4807L29.2489 12.9503L29.3638 13.0668L27.5408 14.9418L27.1992 14.6495L26.6293 14.8827L26.8002 14.9992L26.6852 15.1175L26.5144 15.2358L26.401 15.4705L26.2877 15.2931L25.8886 15.4705L26.0036 15.6461L26.2877 15.5278L26.4585 15.5871V15.4705L26.5718 15.4114L26.6293 15.2931L26.8576 15.2358H27.0842L27.1992 15.3522L26.4585 16.1141L26.401 15.9975L25.6045 16.1141L25.4321 16.2898L25.2613 16.3488L25.7753 15.8809L25.6045 15.7628L25.1479 16.4063H25.2613V16.5819L25.4321 16.6412L25.4879 16.9349L25.2053 16.8759L24.9197 16.9349L24.2365 16.5246L24.1789 19.337C25.9333 19.8475 27.7212 20.9755 27.4258 23.0869C27.3461 24.8274 25.4321 25.5415 24.0657 25.8994L24.0081 27.3655C25.2453 27.8811 26.3277 28.973 26.401 30.4113V31.5834L26.2877 31.8183L26.1169 31.9923L26.0036 32.0514L24.9755 32.227L23.9523 32.4043L23.8933 32.9297C27.1657 32.5357 29.4277 31.6048 31.8716 29.2979L33.693 31.2321C27.7435 37.0607 18.354 37.146 12.4445 31.2321L14.2659 29.3555C16.764 31.5736 18.7962 32.5194 22.0718 32.9297V32.3453C19.3917 32.1696 16.5613 30.9135 14.665 28.9466L15.1215 28.4771L15.8048 28.5362L16.148 28.1258L17.1153 28.1849L17.2286 27.8318V27.7169C18.6318 28.7611 20.2744 29.5131 22.0144 29.6493V29.1223C20.1004 28.8892 18.2758 28.024 16.8312 26.7187L18.7085 24.7846L19.3933 25.3724L20.1914 25.8403L20.3047 25.548L20.3622 25.3149L19.6789 24.9044L19.0517 24.4349L20.9321 22.5008L21.3886 22.8521L21.8994 23.0869V22.5008L21.5594 22.3252L21.2738 22.1494L21.7862 21.6225L21.2738 21.4451L20.9321 21.7965L20.6463 21.4451L20.4755 21.0938L20.0206 20.8606L19.5656 20.6258L19.1665 20.2728L18.8249 19.9806L18.4817 19.6293L18.2535 19.2204C17.658 17.93 17.6612 16.0582 18.5967 14.9418L16.7162 13.0094C18.3492 11.5941 19.5113 10.8585 21.6728 10.5482V9.96215C19.647 10.3381 17.8448 11.141 16.3746 12.6563L16.0904 12.305L15.8048 12.8321L16.033 13.0094C14.4271 14.7956 13.383 17.1713 13.4119 19.6293H10.7907C10.7699 16.49 12.0997 13.4197 14.1525 11.1343L15.0066 11.9536H15.3482L15.5764 11.837L14.5516 10.7239L15.4056 9.96215L16.3746 9.25778L16.4896 8.84724L16.887 8.32017L16.148 8.73238L15.4632 9.25777L14.7783 9.78644L14.1525 10.3709L12.3295 8.49756C14.7416 5.92476 18.0907 4.48004 21.502 4.04327L21.4446 3.92665L21.3886 3.5162C1.12659 6.8311 3.29444 35.4057 23.0392 36.1527ZM15.5764 12.5989L15.634 12.305H15.3482L15.5764 12.5989ZM24.6339 22.7355L24.5781 22.6765L24.4631 22.5599L24.1789 22.3842H24.1231V23.2626L24.3513 23.146L24.4631 23.0279L24.5781 22.9112L24.6339 22.7355ZM26.1169 5.50937L26.2877 5.33206L25.9461 5.21561H25.2054L24.9755 5.33206L24.5205 5.27463V5.39124L25.3187 5.50937L25.7163 5.45035L26.1169 5.50937ZM26.6852 10.6073L26.1169 10.43L25.547 10.2543L24.9755 10.0786L24.4073 9.96216L24.3513 10.5482L24.9197 10.6073L25.4879 10.783L26.5144 11.1343L26.6294 10.8996L26.6852 10.6073ZM36.5983 8.26283C37.7014 12.3099 41.0296 11.7895 42.6947 15.8809C42.8639 12.3855 43.4833 9.26918 40.3018 6.85734C41.6299 8.53856 41.1909 11.3872 41.9539 13.359C40.6705 10.3069 37.9712 10.0344 36.5983 8.26283ZM8.62614 7.79319C9.5583 6.52729 9.8808 5.19415 11.1898 4.15988C8.25262 4.73775 5.88043 7.6028 5.32328 10.5482C6.26678 9.47768 7.61079 8.95396 8.62614 7.79319ZM40.1294 17.1682C39.8755 21.0215 42.2604 22.3826 42.1247 25.8403C44.2127 22.064 46.5769 22.4138 45.4866 16.3488C45.2871 19.094 43.0139 21.0805 42.5813 23.7897C42.6674 20.0921 41.9348 19.9838 40.1294 17.1682ZM45.999 21.8555C45.0779 24.3709 42.3067 25.9077 40.9275 28.8285C41.7768 24.9799 40.8285 24.898 40.3018 21.5634C38.956 25.1032 40.7263 27.1324 39.7302 30.9382C43.0267 27.8779 45.718 27.6743 45.999 21.8555ZM43.0363 18.5752C42.2013 15.101 40.8349 14.6429 38.707 12.4216C39.7479 16.4162 42.428 17.5638 43.0363 20.685C44.4746 16.7165 46.2832 15.0731 43.3779 10.7239C44.3404 13.2802 42.8798 15.9975 43.0363 18.5752ZM7.31713 12.4216C5.20522 14.7661 3.88499 15.0091 2.98636 18.5752C3.10601 15.963 1.7779 13.3033 2.64475 10.7239C1.44911 12.4479 0.936694 14.1914 1.2783 16.2898C1.58319 17.8594 2.8874 19.4371 2.98636 20.685C3.67278 17.5408 6.49822 16.1584 7.31713 12.4216ZM5.89165 17.1682C4.01907 20.1809 3.46045 20.0151 3.44282 23.7897C3.12364 21.0642 0.6477 19.0924 0.593475 16.3488C-0.551119 22.307 1.72996 21.982 3.95523 25.8403C3.78283 22.2447 6.23006 20.923 5.89165 17.1682ZM31.6417 38.0293C29.7197 37.4875 27.9894 37.2741 26.0036 37.3266C20.7708 38.2215 25.3267 38.2477 20.0206 37.3266C15.9388 36.8456 11.1323 39.9485 7.94292 38.2624C12.9553 42.3801 17.0482 38.9077 21.8436 38.5547C20.493 39.2442 18.8536 40.5036 17.9119 41.7202L19.0517 41.8368C21.7382 37.8324 24.2987 37.7962 26.9694 41.8368L28.109 41.7202C27.4579 40.5709 25.3523 39.2163 24.2365 38.5547C29.059 38.9422 33.08 42.3539 38.1372 38.2624C36.2918 39.2787 33.519 38.5497 31.6417 38.0293ZM38.193 32.8723C39.783 30.5262 38.8794 28.9203 39.162 26.3673C36.7994 29.6691 37.8833 32.1893 36.1993 34.8064C40.6418 32.7853 43.0044 33.9986 44.9742 27.4231C43.4018 30.4851 40.3464 30.6377 38.193 32.8723ZM33.9212 36.5056C36.3749 33.9838 35.5926 33.2795 36.6557 30.646C33.2269 33.905 34.0043 34.015 32.0408 37.7354C33.6451 37.1904 36.0363 38.082 38.0222 37.2067C39.9122 36.6501 41.317 35.0922 42.1807 33.3402C40.0527 35.7356 36.4466 34.8277 33.9212 36.5056ZM13.9817 37.7354C12.1172 34.107 12.6488 33.7391 9.42421 30.646C10.4348 33.3665 9.6893 34.0298 12.1587 36.5056C9.75634 34.9377 5.52279 35.5403 3.89781 33.3402C4.69602 35.1167 6.20441 36.6584 8.05777 37.2067C10.0229 38.082 12.4317 37.187 13.9817 37.7354ZM6.34811 30.9382C5.28175 27.2819 7.16861 25.2016 5.72084 21.5634C5.20362 24.719 4.34318 25.3199 5.09505 28.8285C3.91384 26.0094 1.06276 24.4167 0.0251465 21.8555C0.413063 27.684 2.86816 27.8056 6.34811 30.9382ZM6.86213 26.3673C7.30911 28.8908 6.1534 30.1305 7.82954 32.8723C6.03842 30.8167 2.35735 30.293 1.1059 27.4231C1.55916 29.6297 2.7437 31.7952 4.69602 32.9297C6.25877 33.8953 8.53667 33.8525 9.82338 34.8064C8.08488 32.0415 9.30456 29.5952 6.86213 26.3673ZM3.32957 15.8809C5.07275 11.7862 8.27171 12.3723 9.42421 8.26283L9.31096 8.49757L9.0826 8.73239L8.51276 9.14116L7.08889 10.0786L6.23327 10.6649C5.28175 11.3314 4.60654 12.3312 4.07022 13.359C4.84599 11.6203 4.39273 8.6224 5.72085 6.85734C4.23301 8.00168 3.51466 9.3759 3.27201 11.2509C2.99584 12.7926 3.42853 14.4821 3.32957 15.8809ZM37.4539 7.79319C38.5027 8.94902 39.6872 9.51549 40.7567 10.5482C40.0639 7.53883 37.8945 4.81329 34.8886 4.15988C36.1338 5.06613 36.4817 6.73578 37.4539 7.79319Z" fill="#2484C6"/>
<path d="M24.0081 29.0632C24.8542 29.4868 25.6651 30.1961 25.8885 31.173C26.0402 29.789 25.2357 28.5215 24.0081 28.0091V29.0632Z" fill="#2484C6"/>
<path d="M29.4196 10.2543C29.3334 7.48292 26.8511 6.1497 24.463 5.97733V6.79665L24.4072 7.79319C26.0226 7.9114 27.6077 8.97702 27.1991 10.8405C26.9852 11.7747 26.2605 12.1555 25.4878 12.5381C24.0033 13.0996 22.5043 13.3409 21.0469 13.8302C17.1009 15.3144 17.5174 20.1201 21.8993 21.0362L21.8435 19.1021C19.8657 18.1385 20.2089 16.0844 22.2984 15.587C25.1733 14.5822 29.5074 14.4639 29.4196 10.2543Z" fill="#2484C6"/>
<path d="M20.7038 26.3098V26.6612L20.8188 26.9534L20.9322 27.1882L21.103 27.4231L21.502 27.8318L22.0144 28.1258L21.9586 26.4854L22.0144 26.3098L22.1278 26.1917L22.2986 26.0751L22.471 25.957L22.9818 25.7237C23.8294 25.4002 25.8025 24.975 26.3436 24.2C27.9063 22.3875 26.2063 20.4321 24.1791 19.9231L24.1231 21.7391C25.3219 22.1675 25.5375 23.0345 24.4631 23.7306C23.3664 24.2264 20.6783 24.6385 20.7038 26.3098Z" fill="#2484C6"/>
<path d="M18.2535 9.31688L17.8545 9.3759L18.3109 8.55675L18.8824 8.61418L18.2535 9.31688ZM21.5594 6.21207C19.1155 7.4337 18.2918 6.78021 16.8871 9.3759L16.7737 9.72725L16.7162 10.0786L16.6029 10.3709L16.4321 10.6649L16.3746 10.8996V11.0752C16.2661 11.6762 15.6099 12.2606 15.0066 12.0703L15.1216 12.1293L15.2924 12.1884L15.5764 12.1293L15.918 12.0127L15.8622 12.2476L15.6914 12.773C16.8631 10.6023 16.2325 11.8798 17.9119 10.9586C20.1834 9.82098 20.1482 8.83416 21.6154 8.14622L21.5594 6.21207Z" fill="#2484C6"/>
<path d="M23.2117 26.1917L22.8126 26.3673L22.6402 26.4264L22.5269 26.5447L22.6402 33.8097L22.6977 34.2777L22.7551 34.6291L22.8685 34.8639L22.9818 34.9229L23.1542 34.8639L23.2675 34.6291L23.3251 34.2777L23.3825 33.8097L23.4959 26.0751L23.2117 26.1917Z" fill="#2484C6"/>
<path d="M22.4708 23.8487L23.154 23.6139L23.5531 23.4957L23.724 15.7052L22.9817 15.94L22.2983 16.1715L22.4708 23.8487Z" fill="#2484C6"/>
<path d="M23.095 0.117631C22.399 0.18495 21.9344 0.401747 21.8435 1.17336L21.7861 1.46552L21.7285 1.81687L21.7861 2.51958L21.8435 3.22395L22.0717 4.27801L22.2409 12.8911L23.1541 12.6564L23.7798 12.4807L23.9522 4.27801L24.179 3.16326L24.2922 2.46215L24.3514 1.81687V1.46552L24.2922 1.17336C24.2013 0.418094 23.7782 0.209513 23.095 0.117631Z" fill="#2484C6"/>
</g>
<defs>
<clipPath id="clip0_2_12349">
<rect width="45.9739" height="41.9" fill="white"/>
</clipPath>
</defs>
</svg>
